<?xml version="1.0"?><svg version="1.2" baseProfile="tiny-ps" viewBox="0 0 300 300" xmlns="http://www.w3.org/2000/svg" xmlns:xlink="http://www.w3.org/1999/xlink"><title>Vincent Ventures</title><g><g fill="#020202" transform="matrix(.1 0 0 -.1 0 300)"><path d="M774 2273c4-10 118-273 254-585l247-567 8 2c8 2 437 1141 437 1159 0 4-8 8-17 8h-18l-72-198c-227-625-267-732-273-732s-67 147-316 763l-68 167H768l6-17zm961 0c-18-45-371-989-401-1070-35-98-37-126-4-47 47 108 430 1116 430 1130 0 12-19 2-25-13zm99-13-21-8-11-31-11-31 52 6 52 5 81-14 82-15 88-35c49-20 90-35 91-33 1 1 5 27 9 58l7 57-55 16c-116 33-311 47-364 25zm-330-135-61-44-40-53c-55-74-81-126-104-215l-19-76v-107l26-66 27-65 7 8c8 9 240 643 240 656 0 14-15 6-76-38zm-44-792-33-87 39-33c49-41 161-97 239-118l60-16 125-6 125-5 75 11c41 6 101 19 133 28l57 16v98l-31-22c-17-12-59-30-92-41l-62-20-100-5-100-5-68 16c-84 20-149 52-207 104l-45 39-39 67c-21 36-40 66-41 66s-17-39-35-87zM130 890c0-16 92-220 100-220 10 0 93 220 86 227-5 6-11-6-48-107-11-30-24-59-28-63l-7-8-37 91-38 90h-14c-8 0-14-4-14-10zm1350 3c0-15 94-223 101-223s89 204 89 223v11l-9-9c-4-6-21-47-37-92-16-46-31-83-35-83-3 0-21 39-40 87l-35 88-17 3-17 3v-8zM380 876v-16h32l-4 12c-2 6-10 14-16 16l-12 4v-16zm865-46-18-20h23V671l20-6 20-6 17 10 18 10-22 1h-23v129l23 4 22 4-22 2-23 1v15c0 21-13 19-35-5zm880 0-18-20h23V669l15-5c8-4 23-3 33 1l17 7-15 6c-24 8-30 23-30 75v48l23 9 22 9h-17c-9 1-21 8-26 16l-8 16-19-21zM537 819l-17-10-22 7-21 6 6-23c4-13 7-48 7-76v-53h30v119l18 10 19 10 11-11 12-12V670h30v129l-16 15c-18 18-32 20-57 5zm173-2-25-12-9-38-9-37 11-25 12-25 25-12 25-11 22 11 23 11h-27l-27 1-15 16-16 15v30c0 17 5 39 11 51l11 20 30-6 30-6-4 13c-6 17-39 19-68 4zm173 3c-28-12-43-40-43-84v-35l16-15c8-9 27-19 40-22l25-6 22 10 22 11h-32l-32 1-15 16c-9 8-16 24-16 34v19l53 3 52 3-3 20c-3 22-38 55-56 54-6 0-21-4-33-9zm50-28 17-19-7-6c-3-4-21-7-40-7h-33v13c0 16 20 37 35 37 7 0 19-8 28-18zm167 28-15-10-28 6-27 6 10-27c5-14 10-49 10-76v-49h30v119l18 10 19 10 11-11 12-12V670h30v116l-16 22c-16 24-31 27-54 12zm647-10-25-20-6-23-5-23 7-29 8-30 28-13 27-13 29 6c17 4 30 10 30 14v8l-29-5-29-4-21 21c-12 12-21 28-21 36v15h110v40l-20 20-20 20h-19c-10 0-30-9-44-20zm61-12c7-7 12-18 12-25v-13h-70v13c0 16 20 37 35 37 6 0 16-5 23-12zm172 22-15-10-29 6-29 6 6-17c4-9 7-43 7-76v-59h29l3 63 3 62 28 3 27 3V670h30v136l-12 12c-14 14-28 15-48 2zm520-5-13-16-11 11c-5 5-14 10-18 10h-8V670h30v120l25 6 25 6v14c0 18-14 18-30-1zm106-6-26-20v-89l20-20c11-11 28-20 38-20 26 0 62 11 62 19v8l-27-4-28-4-16 13c-10 7-20 23-24 36l-6 22h111v40l-20 20-20 20h-19c-10 0-30-9-45-21zm62-11c7-7 12-18 12-25v-13h-70v13c0 16 20 37 35 37 6 0 16-5 23-12zm120 21-18-10v-50l35-20 35-21v-37l-37-3-38-4 28-8 28-9 25 12 24 11v50l-41 25-40 26 4 12 4 12 32-1 31-2v8c0 19-46 25-72 9zM380 745v-75h30v150h-30v-75zm1870 11v-65l16-15c18-19 25-20 58-5l25 12 15-12 14-12 5 8c3 5 2 15-4 23l-9 15v115h-29l-3-67-3-68h-50l-3 68-3 67h-29v-64z"/></g></g></svg>