<?xml version="1.0"?><svg version="1.2" baseProfile="tiny-ps" viewBox="0 0 222 222" xmlns="http://www.w3.org/2000/svg" xmlns:xlink="http://www.w3.org/1999/xlink"><title>Vincent-Ventures</title><g><g fill="#030303" transform="matrix(.1 0 0 -.1 0 222)"><path d="M80 1875c0-3 51-121 113-263 62-141 221-503 353-804 131-301 241-548 244-548 5 0 586 1556 597 1598l5 22h-50l-41-112C944 788 872 595 866 595c-4 0-125 289-268 643l-261 642H209c-71 0-129-2-129-5zm1337-2c-3-5-91-240-197-523S979 705 919 546c-95-254-114-315-94-294 16 16 615 1588 615 1615 0 14-16 18-23 6zm188-30c-22-2-50-5-61-8l-22-5-16-40c-9-22-16-44-16-49v-9l41 11 41 10 97-12c115-14 215-41 325-87 44-19 86-34 92-34h11l10 73 11 72-8 9c-5 4-49 19-99 32l-90 23-102 11c-99 10-132 10-214 3zm-475-167c-204-133-324-346-346-613l-6-78 37-90c20-49 40-94 44-98l8-8 168 461c92 253 166 462 164 464s-33-15-69-38zm-60-1012c-7-16-28-72-47-124l-36-94 47-42 47-41 87-45c90-47 174-78 277-100l60-13 175 1h175l87 17c49 10 117 27 153 38l65 20v131l-27-17c-59-39-91-54-157-74l-69-21-101-9-102-9-82 8c-102 11-179 33-257 73l-60 32-75 75-75 75-37 74-37 75-11-30z"/></g></g></svg>